<svg width="1200" height="1200" viewBox="0 0 1200 1200" fill="none" xmlns="http://www.w3.org/2000/svg">
<path d="M564 143C564 444.62 564 746.24 564 1057C501.656 1057 501.656 1057 482.923 1056.2C479.517 1056.06 476.112 1055.93 472.706 1055.8C470.474 1055.71 468.243 1055.62 466.012 1055.54C464.531 1055.48 464.531 1055.48 463.021 1055.42C461.631 1055.36 461.631 1055.36 460.214 1055.3C459.42 1055.26 458.626 1055.23 457.807 1055.2C453.861 1054.92 449.932 1054.44 446 1054C445.67 830.59 445.34 607.18 445 377C438.056 394.045 431.135 411.094 424.313 428.188C422.562 432.573 420.81 436.958 419.059 441.344C418.627 442.425 418.196 443.506 417.751 444.62C415.106 451.241 412.451 457.857 409.786 464.469C399.556 489.865 389.707 515.399 380 541C379.676 541.856 379.351 542.712 379.016 543.593C363.208 585.239 348.146 627.163 333.087 669.083C328.423 682.067 323.725 695.038 319 708C318.01 708 317.02 708 316 708C311.133 702.439 307.834 695.24 304.375 688.75C300.382 681.342 296.322 673.983 292.125 666.688C287.698 658.987 283.331 651.256 279 643.5C273.276 633.255 267.483 623.051 261.645 612.87C259.834 609.71 258.028 606.546 256.223 603.383C249.402 591.429 242.564 579.485 235.688 567.562C235.06 566.473 234.432 565.384 233.784 564.261C233.2 563.248 232.615 562.235 232.012 561.191C231.501 560.307 230.99 559.422 230.464 558.51C228.997 555.994 227.501 553.496 226 551C225.595 649.019 225.595 649.019 228 747C228.035 747.87 228.069 748.74 228.105 749.637C229.819 792.781 231.548 835.953 235 879C232.212 877.727 230.168 876.416 228.012 874.242C227.206 873.434 227.206 873.434 226.383 872.609C225.824 872.037 225.264 871.465 224.688 870.875C223.813 869.991 223.813 869.991 222.921 869.088C219.428 865.533 216.094 861.891 212.872 858.09C209.901 854.772 206.714 851.67 203.526 848.562C200.105 845.201 196.937 841.679 193.799 838.053C190.867 834.706 187.807 831.483 184.75 828.25C183.43 826.845 182.109 825.44 180.79 824.035C179.825 823.009 179.825 823.009 178.841 821.961C171.256 813.88 163.883 805.698 157 797C156.42 796.396 155.84 795.791 155.242 795.169C149.27 788.527 148.696 782.398 148.188 773.688C148.084 772.282 147.978 770.876 147.87 769.471C147.593 765.744 147.358 762.016 147.137 758.285C147.001 756.014 146.857 753.744 146.709 751.474C144.729 720.84 143.839 690.21 143.833 659.514C143.832 657.253 143.83 654.992 143.828 652.731C143.819 644.709 143.814 636.688 143.815 628.667C143.816 622.207 143.809 615.747 143.795 609.287C143.707 568.069 144.224 526.926 145.643 485.731C145.917 477.727 146.147 469.724 146.32 461.717C146.447 455.841 146.623 449.968 146.829 444.095C146.905 441.642 146.96 439.188 146.999 436.735C147.409 412.738 147.409 412.738 154.332 405.109C156.18 403.361 158.068 401.654 160 400C161.607 398.25 163.194 396.482 164.75 394.688C165.477 393.887 166.205 393.086 166.954 392.262C168.826 390.193 170.669 388.104 172.5 386C202.091 352.076 202.091 352.076 209 349C226.438 373.527 241.247 399.789 256.372 425.773C260.759 433.308 265.172 440.827 269.584 448.347C273.994 455.862 278.39 463.383 282.769 470.916C290.318 485.728 290.318 485.728 300 499C300.3 498.131 300.6 497.261 300.908 496.365C332.648 404.512 368.895 313.95 438.016 160.615C438.513 159.549 439.011 158.482 439.524 157.383C440.172 155.997 440.172 155.997 440.834 154.583C441.964 152.08 443.001 149.557 444 147C461.439 145.71 478.889 144.747 496.36 144.009C498.391 143.922 500.422 143.833 502.453 143.741C522.994 142.816 543.402 143 564 143Z" fill="white"/>
<path d="M637 144C691.952 145.195 691.952 145.195 717.062 146.375C717.764 146.408 718.466 146.441 719.189 146.475C728.239 146.9 737.288 147.349 746.337 147.814C749.705 147.985 753.073 148.146 756.441 148.303C760.885 148.514 765.325 148.76 769.764 149.046C771.265 149.139 772.766 149.219 774.268 149.286C784.351 149.749 789.794 151.966 797 159C798.186 160.005 799.379 161.001 800.582 161.984C801.661 162.904 802.738 163.826 803.812 164.75C804.399 165.253 804.985 165.756 805.589 166.275C810.833 170.804 815.927 175.487 820.996 180.211C823.573 182.611 826.184 184.969 828.812 187.312C835.27 193.103 841.565 199.067 847.881 205.011C849.983 206.984 852.09 208.95 854.199 210.914C861.053 217.303 867.835 223.726 874.375 230.438C876.336 232.352 878.29 234.109 880.375 235.875C887.997 242.481 894.927 249.876 902.019 257.039C903.989 259.028 905.963 261.014 907.938 263C908.527 263.598 909.117 264.196 909.725 264.812C913.354 268.462 917.121 271.878 921.013 275.243C924.24 278.097 927.276 281.133 930.316 284.184C930.977 284.843 931.637 285.502 932.317 286.181C933.7 287.564 935.083 288.948 936.464 290.333C938.557 292.432 940.656 294.526 942.756 296.619C944.11 297.974 945.463 299.328 946.816 300.684C947.433 301.298 948.05 301.913 948.686 302.547C952.415 306.296 955.936 310.173 959.395 314.172C961.443 316.504 963.602 318.698 965.812 320.875C966.661 321.715 967.509 322.556 968.383 323.422C969.246 324.273 970.11 325.123 971 326C976.363 331.283 981.61 336.573 986.512 342.289C988.407 344.468 990.428 346.49 992.5 348.5C995.908 351.806 999.022 355.294 1002.13 358.877C1005.17 362.33 1008.34 365.661 1011.5 369C1015.91 373.657 1020.24 378.365 1024.44 383.209C1026.35 385.398 1028.29 387.544 1030.25 389.688C1033.83 393.66 1037.34 397.681 1040.81 401.75C1041.27 402.281 1041.72 402.811 1042.19 403.358C1043.49 404.885 1044.74 406.442 1046 408C1046.73 408.871 1047.45 409.743 1048.2 410.641C1053.5 420.523 1052.72 433.862 1053.43 444.868C1053.62 447.769 1053.83 450.669 1054.03 453.568C1054.16 455.49 1054.29 457.411 1054.41 459.332C1054.47 460.16 1054.53 460.988 1054.59 461.841C1055.26 472.583 1055 483.181 1055 494C1028.27 494 1001.54 494 974 494C973.34 482.45 972.68 470.9 972 459C971.613 449.897 971.613 449.897 967.312 443.812C966.504 442.902 965.696 441.992 964.863 441.055C963.911 440.035 962.956 439.017 962 438C960.868 436.774 959.737 435.547 958.605 434.32C956.198 431.721 953.776 429.135 951.344 426.559C948.688 423.742 946.077 420.89 943.5 418C938.064 411.922 932.48 405.983 926.904 400.034C924.949 397.946 922.998 395.854 921.047 393.762C915.388 387.7 909.738 381.656 903.816 375.848C902.098 374.1 900.508 372.298 898.922 370.43C894.428 365.265 889.598 360.455 884.754 355.621C883.774 354.641 882.794 353.66 881.815 352.679C879.773 350.636 877.73 348.595 875.685 346.555C873.085 343.961 870.49 341.362 867.896 338.762C865.878 336.74 863.856 334.72 861.835 332.701C860.418 331.285 859.003 329.867 857.588 328.449C853.089 323.967 848.549 319.608 843.712 315.491C840.826 312.977 838.174 310.236 835.5 307.5C831.451 303.4 827.354 299.469 822.957 295.738C819.631 292.784 816.563 289.57 813.438 286.406C811.35 284.346 809.228 282.405 807 280.5C802.925 277.017 799.207 273.222 795.441 269.41C792.728 266.731 789.892 264.254 786.996 261.777C784.739 259.767 782.623 257.652 780.5 255.5C777.201 252.162 773.817 249.021 770.254 245.969C766.78 242.934 763.409 239.789 760.036 236.643C757.237 234.018 757.237 234.018 754 232C754.33 475.21 754.66 718.42 755 969C758.96 965.37 762.92 961.74 767 958C771.938 953.562 771.938 953.562 774.391 951.359C783.405 943.209 792.272 934.897 801.148 926.598C803.775 924.143 806.405 921.693 809.039 919.246C809.702 918.629 810.366 918.012 811.049 917.376C812.303 916.21 813.558 915.045 814.814 913.881C817.748 911.15 820.625 908.384 823.438 905.527C825.801 903.142 828.23 900.902 830.781 898.719C835.957 894.251 840.703 889.366 845.5 884.5C850.924 878.998 856.34 873.589 862.208 868.56C864.945 866.177 867.508 863.638 870.062 861.062C870.779 860.352 870.779 860.352 871.51 859.627C874.145 856.985 876.639 854.274 879.059 851.434C884.904 844.688 891.404 838.542 897.748 832.272C903.491 826.59 909.189 820.95 914.43 814.793C917.286 811.532 920.406 808.534 923.5 805.5C927.954 801.093 932.289 796.678 936.332 791.887C939.255 788.58 942.452 785.542 945.59 782.441C948.268 779.728 950.746 776.895 953.219 773.996C955.243 771.728 957.386 769.622 959.562 767.5C962.334 764.738 965.025 761.97 967.5 758.938C968.196 758.085 968.196 758.085 968.906 757.215C972.537 749.862 971.411 739.65 971.754 731.562C971.812 730.253 971.87 728.944 971.93 727.596C972.144 722.731 972.353 717.865 972.562 713C973.274 696.665 973.274 696.665 974 680C948.92 680 923.84 680 898 680C898 653.6 898 627.2 898 600C950.47 600 1002.94 600 1057 600C1057 647.116 1057 647.116 1056.62 664.5C1056.6 665.529 1056.58 666.557 1056.56 667.617C1055.87 700.733 1054.84 733.864 1053 766.938C1052.96 767.618 1052.93 768.298 1052.89 768.999C1051.81 789.087 1051.81 789.087 1045 796.375C1044.51 796.922 1044.03 797.47 1043.52 798.034C1042.03 799.704 1040.52 801.353 1039 803C1038.1 803.998 1037.2 804.996 1036.3 805.996C1034.63 807.842 1032.95 809.682 1031.27 811.516C1029.3 813.675 1027.36 815.856 1025.44 818.062C1018.37 826.171 1011.1 834.064 1003.73 841.896C1000.22 845.623 996.735 849.368 993.281 853.145C987.972 858.948 982.511 864.552 976.887 870.051C974.894 872.038 973.058 874.096 971.247 876.249C965.231 883.147 958.634 889.509 952.16 895.973C950.709 897.424 949.259 898.876 947.808 900.327C944.778 903.359 941.746 906.389 938.713 909.417C934.842 913.283 930.976 917.152 927.11 921.024C924.119 924.019 921.125 927.011 918.13 930.003C916.705 931.429 915.279 932.855 913.855 934.281C900.669 947.484 900.669 947.484 894.505 952.718C892.572 954.365 890.777 956.124 889 957.938C888.34 958.605 887.68 959.273 887 959.961C886.34 960.634 885.68 961.307 885 962C880.42 966.669 875.769 971.141 870.812 975.41C868.429 977.501 866.211 979.729 864 982C860.415 985.629 856.737 989.041 852.863 992.355C850.418 994.514 848.158 996.83 845.874 999.157C844.066 1000.93 842.204 1002.6 840.281 1004.25C836.087 1007.9 832.035 1011.68 828 1015.5C823.356 1019.9 818.661 1024.21 813.831 1028.4C811.409 1030.52 809.049 1032.69 806.688 1034.88C787.861 1052.03 787.861 1052.03 779.461 1052.88C778.349 1052.99 777.237 1053.11 776.091 1053.23C774.865 1053.34 773.638 1053.45 772.375 1053.56C771.722 1053.62 771.068 1053.68 770.395 1053.75C765.267 1054.21 760.135 1054.62 755 1055C753.906 1055.08 753.906 1055.08 752.79 1055.16C714.235 1057.98 675.653 1057 637 1057C637 755.71 637 454.42 637 144Z" fill="white"/>
<path d="M595.986 30.8118C598.266 30.8125 600.546 30.8128 602.826 30.8129C647.244 30.8162 691.621 30.9235 736 33C737.271 33.058 738.542 33.116 739.851 33.1757C757.574 33.986 775.295 34.8561 793 36C794.11 36.0701 795.219 36.1402 796.362 36.2124C799.718 36.4301 803.072 36.6653 806.426 36.9063C807.427 36.9707 808.428 37.0351 809.459 37.1015C828.348 38.537 842.37 46.4916 856 59C856.992 59.8953 857.984 60.7899 858.977 61.6836C860.829 63.3596 862.676 65.0417 864.516 66.7305C867.301 69.2745 870.135 71.7555 872.981 74.2305C876.163 77.0189 879.301 79.8565 882.442 82.6914C884.093 84.1812 885.746 85.6684 887.403 87.1524C892.661 91.8654 897.869 96.63 903.051 101.426C906.605 104.715 910.173 107.987 913.75 111.25C918.783 115.861 923.775 120.515 928.75 125.188C929.447 125.841 930.144 126.494 930.863 127.167C934.306 130.408 937.695 133.685 941.016 137.051C943.553 139.608 946.14 142.032 948.875 144.375C954.769 149.451 960.124 155.08 965.578 160.617C966.419 161.465 967.259 162.314 968.125 163.188C968.87 163.944 969.616 164.701 970.383 165.48C972.406 167.427 974.445 169.255 976.574 171.078C982.207 175.971 987.425 181.281 992.692 186.559C993.807 187.673 994.922 188.787 996.037 189.901C998.363 192.225 1000.69 194.551 1003.01 196.878C1005.97 199.841 1008.93 202.8 1011.89 205.757C1014.19 208.054 1016.49 210.353 1018.79 212.652C1019.88 213.743 1020.97 214.834 1022.06 215.923C1027.39 221.245 1032.63 226.587 1037.54 232.313C1039.59 234.684 1041.8 236.89 1044.03 239.094C1044.92 239.979 1045.82 240.865 1046.74 241.777C1047.65 242.676 1048.56 243.574 1049.5 244.5C1055.01 249.935 1060.43 255.363 1065.47 261.244C1067.69 263.795 1070.08 266.134 1072.5 268.5C1076.31 272.252 1079.92 276.106 1083.39 280.172C1085.03 282.029 1086.74 283.766 1088.5 285.5C1090.79 287.758 1092.96 290.06 1095.06 292.5C1098.56 296.559 1102.21 300.467 1105.88 304.375C1110.62 309.434 1115.32 314.52 1119.94 319.691C1121.33 321.247 1122.72 322.796 1124.13 324.34C1129.53 330.299 1134.81 336.361 1140.01 342.5C1141.88 344.699 1143.77 346.865 1145.71 349C1150.35 354.248 1154.19 359.561 1157.44 365.75C1157.91 366.624 1157.91 366.624 1158.4 367.515C1164.99 380.915 1164.75 397.528 1165.56 412.125C1165.69 414.235 1165.81 416.346 1165.94 418.456C1166.77 432.903 1167.49 447.356 1168.13 461.813C1168.18 463.113 1168.18 463.113 1168.24 464.44C1169.54 494.187 1170.16 523.916 1170.17 553.689C1170.17 556.24 1170.17 558.791 1170.17 561.342C1170.18 570.366 1170.19 579.389 1170.19 588.413C1170.19 595.718 1170.19 603.023 1170.21 610.328C1170.29 654.599 1169.95 698.764 1168 743C1167.93 744.681 1167.86 746.362 1167.78 748.043C1167.46 755.446 1167.1 762.846 1166.68 770.244C1166.49 773.525 1166.32 776.807 1166.14 780.09C1165.58 790.458 1164.92 800.812 1164.01 811.156C1163.94 812.047 1163.86 812.939 1163.78 813.857C1162.03 832.884 1152.47 846.219 1140 860C1139.54 860.515 1139.07 861.03 1138.59 861.561C1136.48 863.9 1134.36 866.229 1132.23 868.551C1129.7 871.328 1127.23 874.153 1124.76 876.988C1118.1 884.595 1111.24 892.027 1104.4 899.472C1102.57 901.464 1100.75 903.458 1098.92 905.452C1096.62 907.97 1094.31 910.485 1092 913C1091.54 913.501 1091.08 914.002 1090.61 914.518C1066.79 940.457 1066.79 940.457 1056.31 950.629C1054.43 952.562 1052.68 954.523 1050.93 956.571C1046.77 961.327 1042.36 965.785 1037.89 970.242C1037 971.13 1036.12 972.017 1035.2 972.931C1032.8 975.342 1030.39 977.751 1027.98 980.158C1025.44 982.692 1022.91 985.228 1020.37 987.764C1016.12 992.019 1011.86 996.273 1007.61 1000.53C1002.7 1005.42 997.799 1010.33 992.9 1015.23C988.675 1019.46 984.448 1023.69 980.219 1027.92C977.702 1030.43 975.185 1032.95 972.67 1035.47C969.864 1038.28 967.054 1041.08 964.243 1043.89C963.422 1044.71 962.602 1045.53 961.756 1046.38C957.549 1050.57 953.271 1054.61 948.752 1058.47C945.856 1061 943.187 1063.75 940.5 1066.5C936.408 1070.64 932.267 1074.62 927.825 1078.39C925.165 1080.74 922.711 1083.26 920.25 1085.81C918.306 1087.7 916.321 1089.48 914.274 1091.26C909.946 1095.02 905.781 1098.93 901.625 1102.88C895.492 1108.67 889.305 1114.39 883 1120C881.417 1121.44 879.834 1122.87 878.25 1124.31C873.655 1128.45 868.965 1132.48 864.248 1136.48C861.469 1138.84 858.726 1141.23 856.082 1143.74C847.697 1151.7 839.625 1157.48 828.211 1160.1C827.47 1160.27 826.728 1160.44 825.964 1160.62C817.775 1162.4 809.601 1163.05 801.25 1163.56C799.485 1163.68 797.719 1163.8 795.954 1163.91C778.129 1165.06 760.281 1165.84 742.438 1166.62C741.731 1166.66 741.024 1166.69 740.296 1166.72C729.533 1167.2 718.768 1167.63 708 1168C706.9 1168.04 706.9 1168.04 705.778 1168.08C671.853 1169.23 637.915 1169.2 603.975 1169.19C601.734 1169.19 599.494 1169.19 597.254 1169.19C552.811 1169.18 508.406 1169.05 464 1167C462.081 1166.91 462.081 1166.91 460.122 1166.82C437.692 1165.8 415.271 1164.66 392.879 1162.98C391.805 1162.91 390.73 1162.83 389.623 1162.74C369.245 1161.17 355.92 1154.64 341 1141C339.984 1140.08 338.967 1139.16 337.95 1138.25C336.109 1136.58 334.272 1134.91 332.442 1133.23C330.339 1131.31 328.214 1129.43 326.063 1127.56C322.111 1124.13 318.265 1120.59 314.416 1117.04C311.706 1114.55 308.978 1112.09 306.188 1109.69C300.944 1105.14 295.92 1100.35 290.856 1095.61C287.462 1092.43 284.048 1089.27 280.625 1086.12C258.602 1065.84 258.602 1065.84 250.153 1057.09C248.315 1055.31 246.44 1053.65 244.495 1051.99C239.424 1047.56 234.685 1042.83 229.932 1038.06C228.947 1037.08 227.962 1036.09 226.977 1035.11C224.324 1032.46 221.674 1029.81 219.025 1027.16C216.239 1024.37 213.451 1021.58 210.663 1018.8C205.983 1014.12 201.306 1009.44 196.63 1004.76C191.24 999.364 185.846 993.972 180.451 988.582C175.801 983.937 171.152 979.289 166.506 974.64C163.739 971.871 160.971 969.103 158.201 966.337C155.596 963.734 152.993 961.13 150.392 958.523C148.994 957.123 147.593 955.725 146.192 954.327C141.785 949.905 137.512 945.431 133.46 940.68C131.263 938.151 128.897 935.841 126.5 933.5C122.692 929.749 119.081 925.894 115.61 921.828C113.974 919.971 112.266 918.234 110.5 916.5C108.207 914.242 106.036 911.94 103.938 909.5C100.402 905.395 96.707 901.45 93.0003 897.5C88.8006 893.021 84.6334 888.531 80.6293 883.875C78.6637 881.612 76.6436 879.403 74.6254 877.188C70.7159 872.862 67.0417 868.385 63.3871 863.844C61.2906 861.346 59.1105 858.973 56.8576 856.616C38.4886 837.319 35.9667 816.218 34.5004 790.688C34.3716 788.515 34.2429 786.342 34.1141 784.17C33.2466 769.306 32.5105 754.438 31.8754 739.562C31.8369 738.669 31.7985 737.776 31.7589 736.856C31.478 730.238 31.2343 723.619 31.0004 717C30.9589 715.83 30.9174 714.66 30.8747 713.454C30.1236 691.702 29.8366 669.974 29.8331 648.21C29.8323 645.64 29.8302 643.07 29.8276 640.5C29.8184 631.412 29.8143 622.324 29.8151 613.235C29.8156 605.875 29.8086 598.515 29.7946 591.154C29.6705 524.59 29.9376 457.729 35.9808 391.383C36.0552 390.538 36.1296 389.692 36.2062 388.822C36.8807 381.836 38.3853 375.542 41.0004 369C41.3136 368.17 41.6269 367.34 41.9496 366.484C45.5715 358.137 51.9696 351.672 58.0004 345C58.837 344.064 59.6736 343.128 60.5355 342.164C62.0154 340.514 63.4995 338.868 64.9887 337.227C66.8477 335.169 68.6797 333.092 70.5004 331C74.6112 326.283 78.8085 321.645 83.0004 317C84.0832 315.793 84.0832 315.793 85.1878 314.563C91.0786 307.999 97.0291 301.491 103 295C103.702 294.237 103.702 294.237 104.418 293.458C127.346 268.514 127.346 268.514 136.185 259.848C137.899 258.103 139.482 256.304 141.063 254.438C146.462 248.227 152.406 242.551 158.262 236.777C159.155 235.892 160.049 235.006 160.969 234.094C162.167 232.913 162.167 232.913 163.389 231.709C165.369 229.655 167.227 227.59 169.079 225.426C174.037 219.715 179.428 214.429 184.778 209.09C185.915 207.952 187.051 206.815 188.188 205.677C190.559 203.304 192.932 200.934 195.306 198.564C198.329 195.546 201.348 192.524 204.366 189.5C206.709 187.154 209.054 184.81 211.4 182.466C212.514 181.353 213.626 180.24 214.738 179.126C220.128 173.727 225.534 168.408 231.334 163.444C233.622 161.461 235.752 159.344 237.875 157.188C238.716 156.339 239.556 155.491 240.422 154.617C241.273 153.754 242.124 152.89 243 152C248.253 146.668 253.513 141.455 259.196 136.582C261.931 134.184 264.462 131.604 267 129C270.934 125.012 274.94 121.208 279.207 117.574C281.055 115.952 282.778 114.253 284.5 112.5C286.758 110.207 289.06 108.036 291.5 105.938C295.56 102.439 299.467 98.7898 303.375 95.125C308.43 90.3879 313.512 85.6882 318.68 81.0742C320.276 79.6476 321.864 78.2122 323.446 76.7696C328.549 72.1224 333.781 67.7099 339.16 63.3867C341.649 61.2955 343.996 59.1154 346.332 56.8572C361.636 42.1817 378.932 37.6735 399.625 36.4375C401.406 36.3209 403.188 36.2038 404.969 36.0864C422.674 34.9572 440.402 34.1712 458.125 33.375C458.822 33.3435 459.519 33.3119 460.237 33.2795C470.823 32.801 481.41 32.3743 492 32C493.068 31.9619 493.068 31.9619 494.157 31.923C528.088 30.7258 562.038 30.7989 595.986 30.8118ZM438.16 80.6951C435.562 80.8615 432.964 81.0226 430.365 81.1746C403.423 82.7515 383.227 84.7529 362.75 103.424C360.459 105.488 358.106 107.473 355.749 109.461C349.614 114.64 343.684 120.01 337.826 125.498C334.946 128.196 332.056 130.864 329.063 133.438C324.512 137.365 320.154 141.498 315.768 145.607C311.888 149.242 307.99 152.854 304.063 156.438C289.343 169.863 289.343 169.863 275.188 183.875C273.303 185.706 271.377 187.41 269.384 189.121C264.969 192.975 260.813 197.047 256.676 201.195C255.886 201.983 255.096 202.771 254.283 203.583C251.695 206.166 249.111 208.753 246.528 211.34C244.718 213.149 242.907 214.959 241.097 216.768C237.312 220.551 233.529 224.336 229.747 228.123C225.393 232.482 221.036 236.838 216.677 241.192C212.459 245.404 208.245 249.619 204.032 253.835C202.249 255.618 200.466 257.4 198.682 259.182C196.184 261.677 193.689 264.176 191.195 266.676C190.466 267.403 189.737 268.13 188.986 268.879C185.017 272.864 181.22 276.941 177.564 281.216C175.018 284.121 172.261 286.802 169.5 289.5C165.335 293.613 161.332 297.777 157.539 302.242C155.424 304.659 153.134 306.878 150.843 309.126C149.065 310.934 147.403 312.797 145.75 314.719C141.501 319.606 137.059 324.299 132.606 329C128.838 332.994 125.167 337.054 121.568 341.201C119.621 343.436 117.625 345.625 115.625 347.813C111.698 352.159 108 356.655 104.325 361.215C101.936 364.077 99.4289 366.784 96.8753 369.5C86.3701 381.017 81.4346 392.543 79.9887 407.992C79.8633 409.294 79.8633 409.294 79.7355 410.622C74.0828 471.312 73.651 532.451 73.7432 593.354C73.7508 598.911 73.748 604.469 73.7396 610.026C73.6801 650.398 74.1657 690.661 76.0004 731C76.0559 732.236 76.0558 732.236 76.1124 733.496C76.4636 741.282 76.8566 749.065 77.3231 756.845C77.5091 759.958 77.6828 763.072 77.8558 766.186C78.4054 775.829 79.0611 785.455 79.9887 795.07C80.0641 795.872 80.1395 796.674 80.2172 797.5C82.014 815.076 90.1418 826.43 102 839C103.196 840.347 104.384 841.701 105.563 843.062C108.895 846.894 112.286 850.668 115.688 854.438C117.922 856.913 120.149 859.394 122.375 861.875C127.085 867.108 131.843 872.297 136.606 877.481C137.957 878.953 139.305 880.428 140.653 881.902C147.421 889.307 154.249 896.656 161.107 903.978C163.06 906.063 165.009 908.153 166.957 910.242C173.918 917.688 180.932 925.057 188.221 932.184C190.898 934.818 193.444 937.492 195.868 940.363C201.374 946.682 207.38 952.523 213.309 958.441C214.603 959.736 215.896 961.03 217.19 962.325C219.89 965.027 222.593 967.728 225.296 970.427C228.744 973.868 232.187 977.314 235.628 980.762C238.295 983.432 240.965 986.101 243.635 988.769C244.905 990.038 246.174 991.307 247.442 992.578C256.207 1001.36 256.207 1001.36 265.428 1009.65C267.457 1011.39 269.346 1013.25 271.219 1015.16C271.924 1015.87 272.629 1016.58 273.356 1017.32C274.786 1018.77 276.215 1020.23 277.645 1021.68C281.706 1025.79 285.859 1029.69 290.237 1033.46C293.162 1036.02 295.829 1038.81 298.532 1041.59C300.558 1043.57 302.614 1045.43 304.75 1047.28C309.86 1051.72 314.743 1056.38 319.645 1061.04C323.735 1064.91 327.887 1068.69 332.143 1072.38C334.808 1074.7 337.402 1077.1 340 1079.5C344.607 1083.74 349.26 1087.91 354 1092C355.072 1092.94 356.144 1093.87 357.215 1094.81C375.578 1110.81 390.448 1118.62 414.938 1120.44C415.746 1120.5 416.555 1120.56 417.388 1120.62C434.478 1121.91 451.593 1122.74 468.711 1123.53C470.756 1123.62 472.801 1123.72 474.846 1123.81C515.659 1125.7 556.46 1126.21 597.313 1126.19C599.037 1126.19 599.037 1126.19 600.796 1126.19C663.473 1126.18 726.028 1124.74 788.551 1120.02C790.106 1119.91 790.106 1119.91 791.693 1119.79C799.273 1119.2 805.948 1117.96 813 1115C813.814 1114.7 814.627 1114.4 815.465 1114.09C824.245 1110.36 831.034 1103.33 838 1097C839.437 1095.71 839.437 1095.71 840.903 1094.4C842.542 1092.93 844.177 1091.45 845.809 1089.98C847.856 1088.13 849.922 1086.31 852 1084.5C855.85 1081.15 859.647 1077.73 863.438 1074.31C865.913 1072.08 868.394 1069.85 870.875 1067.62C881.027 1058.48 891.039 1049.19 901.012 1039.86C903.047 1037.96 905.086 1036.06 907.125 1034.16C914.005 1027.75 920.812 1021.3 927.375 1014.56C929.418 1012.57 931.475 1010.71 933.638 1008.86C938.08 1004.98 942.256 1000.88 946.417 996.713C947.216 995.915 948.016 995.118 948.839 994.296C951.459 991.68 954.076 989.061 956.692 986.441C958.524 984.61 960.357 982.778 962.19 980.946C966.022 977.116 969.852 973.284 973.681 969.45C978.089 965.036 982.501 960.626 986.915 956.218C991.184 951.953 995.451 947.686 999.717 943.418C1001.52 941.612 1003.33 939.807 1005.13 938.003C1007.66 935.477 1010.19 932.947 1012.71 930.416C1013.45 929.68 1014.19 928.944 1014.95 928.185C1018.95 924.17 1022.78 920.065 1026.46 915.759C1029.29 912.527 1032.39 909.571 1035.46 906.578C1038.87 903.222 1042.03 899.711 1045.16 896.093C1048.31 892.515 1051.6 889.078 1054.88 885.625C1060.67 879.492 1066.39 873.308 1072 867C1073.5 865.332 1075 863.666 1076.5 862C1077.24 861.178 1077.98 860.355 1078.74 859.508C1080.27 857.814 1081.79 856.121 1083.32 854.43C1089.24 847.878 1089.24 847.878 1095.06 841.238C1096.56 839.508 1098.09 837.801 1099.63 836.105C1114.27 819.781 1118.14 802.759 1119.5 781.25C1119.59 779.92 1119.59 779.92 1119.68 778.562C1123.04 727.805 1124.59 676.859 1125 626C1125.01 624.437 1125.01 624.437 1125.03 622.843C1125.5 561.65 1124.19 500.399 1120.5 439.313C1120.41 437.812 1120.41 437.812 1120.32 436.281C1119.72 426.366 1119.02 416.464 1118.04 406.578C1117.97 405.821 1117.9 405.064 1117.83 404.284C1115.45 381.693 1098.79 366.336 1084.19 350.406C1082.29 348.314 1080.42 346.2 1078.56 344.063C1075.17 340.164 1071.68 336.362 1068.19 332.561C1065.29 329.413 1062.42 326.248 1059.56 323.063C1054.1 316.984 1048.56 310.989 1043 305C1042.41 304.368 1041.83 303.736 1041.23 303.085C1035.19 296.576 1029.17 290.082 1022.83 283.866C1021.18 282.183 1019.67 280.458 1018.15 278.652C1012.46 272.1 1006.17 266.101 1000 260C985.915 246.067 985.915 246.067 980.719 239.95C976.873 235.586 972.683 231.54 968.563 227.438C967.66 226.531 966.757 225.624 965.827 224.689C962.049 220.917 958.286 217.18 954.215 213.723C947.116 207.631 940.701 200.752 934.127 194.106C925.134 184.989 925.134 184.989 915.633 176.41C913.115 174.235 910.825 171.881 908.5 169.5C904.749 165.691 900.894 162.08 896.828 158.609C894.971 156.974 893.234 155.265 891.5 153.5C889.242 151.207 886.94 149.036 884.5 146.938C880.395 143.402 876.45 139.707 872.5 136C868.024 131.803 863.537 127.641 858.887 123.637C856.564 121.621 854.283 119.562 852 117.5C847.701 113.625 843.378 109.786 839 106C838.522 105.579 838.044 105.159 837.551 104.725C817.654 87.2426 799.524 83.2346 773.563 81.5C772.64 81.4369 771.718 81.3737 770.768 81.3087C755.979 80.3011 741.184 79.5148 726.375 78.875C725.491 78.8366 724.607 78.7982 723.696 78.7586C717.132 78.4777 710.566 78.2344 704 78C702.839 77.9586 701.679 77.9171 700.482 77.8744C680.481 77.1765 660.501 76.8365 640.487 76.8328C638.262 76.832 636.038 76.8299 633.814 76.8273C625.934 76.8181 618.054 76.8139 610.173 76.8147C603.811 76.8152 597.449 76.8083 591.087 76.7942C540.053 76.6842 489.108 77.4025 438.16 80.6951Z" fill="white"/>
</svg>
